<?xml version="1.0" encoding="UTF-8"?>
<svg width="1652px" height="542px" viewBox="0 0 1652 542" version="1.1" xmlns="http://www.w3.org/2000/svg" xmlns:xlink="http://www.w3.org/1999/xlink">
    <!-- Generator: Sketch 52.5 (67469) - http://www.bohemiancoding.com/sketch -->
    <title>mascot_trio_Artboard 1</title>
    <desc>Created with Sketch.</desc>
    <g id="Page-1" stroke="none" stroke-width="1" fill="none" fill-rule="evenodd">
        <g id="mascot_trio_Artboard-1" transform="translate(6.000000, 5.000000)">
            <g id="Group" transform="translate(575.000000, 0.000000)">
                <ellipse id="Oval" fill="#000000" opacity="0.05" cx="232.9" cy="451.5" rx="160.9" ry="19.4"></ellipse>
                <g transform="translate(176.000000, 223.000000)" fill="#313869" id="Path">
                    <path d="M60,1.3 C57.3,-0.5 53.6,0.2 51.8,2.9 C27.1,39.7 23.8,83.3 25.4,113.3 C27.1,145.1 28.8,177.9 35.9,210.3 C32.8,209.4 29.4,208.9 25.7,208.9 C11.8,208.9 0.6,216.1 0.6,225.1 C0.6,226.2 0.8,227.4 1.1,228.4 L50.2,228.4 C50.6,227.3 50.7,226.2 50.7,225.1 C50.7,219.1 48.5,213.2 47.3,207.4 C45.9,200.9 44.7,194.4 43.7,187.9 C41.7,174.9 40.3,161.8 39.3,148.6 C38.4,136.6 37.8,124.7 37.1,112.7 C35.6,84.4 38.7,43.5 61.5,9.5 C63.4,6.8 62.7,3.1 60,1.3 Z"></path>
                    <path d="M72.2,1.3 C74.9,-0.5 78.6,0.2 80.4,2.9 C105.1,39.7 108.4,83.3 106.8,113.3 C105.1,145.1 103.4,177.9 96.3,210.3 C99.4,209.4 102.8,208.9 106.5,208.9 C120.4,208.9 131.6,216.1 131.6,225.1 C131.6,226.2 131.4,227.4 131.1,228.4 L82,228.4 C81.6,227.3 81.5,226.2 81.5,225.1 C81.5,219.1 83.7,213.2 84.9,207.4 C86.3,200.9 87.5,194.4 88.5,187.9 C90.5,174.9 91.9,161.8 92.9,148.6 C93.8,136.6 94.4,124.7 95.1,112.7 C96.6,84.4 93.5,43.5 70.7,9.5 C68.8,6.8 69.5,3.1 72.2,1.3 Z"></path>
                </g>
                <path d="M247.5,69.1 L247.5,27.1 C247.5,12.5 235.7,0.7 221.1,0.7 L218.3,0.7" id="Path" stroke="#313869" stroke-width="11" stroke-linecap="round" stroke-linejoin="round"></path>
                <path d="M470.8,203.7 C455.6,159.3 444.9,107.2 414.5,71.8 C411.1,67.9 406.8,65 401.9,63.4 L343.1,44.2 C333.9,41.2 323.7,43.1 316.3,49.4 C311.2,53.7 304.8,56 298.2,56 L191.2,56 C184.6,56 178.2,53.7 173.1,49.4 C165.7,43.2 155.5,41.2 146.3,44.2 L87.5,63.4 C82.6,65 78.2,67.9 74.9,71.8 C44.5,107.2 33.8,159.3 18.6,203.7 C9.6,230 -12.8,300.5 10.3,325.3 C58.5,377.1 97.9,322.8 137.4,288.5 C142.5,284.1 149.1,281.6 155.8,281.6 L333.5,281.6 C340.3,281.6 346.8,284 351.9,288.5 C391.4,322.8 430.7,377.1 479,325.3 C502.2,300.5 479.8,230 470.8,203.7 Z" id="Path" fill="#95A0D1"></path>
                <path d="M33.1,258.6 C35.5,244.6 40,226.6 47.8,203.7 C51.2,193.8 54.4,183.4 57.5,173.4" id="Path" stroke="#ACB9DE" stroke-width="9" stroke-linecap="round" stroke-linejoin="round"></path>
                <g transform="translate(324.000000, 82.000000)" id="Oval" stroke="#313869" stroke-width="9">
                    <circle fill="#F9DC61" stroke-linecap="round" stroke-linejoin="round" cx="46.7" cy="12.1" r="12.1"></circle>
                    <circle fill="#8DC640" stroke-linecap="round" stroke-linejoin="round" cx="46.7" cy="68.6" r="12.1"></circle>
                    <circle fill="#C759A1" cx="80.7" cy="40.4" r="12.1"></circle>
                    <circle fill="#29AAE2" stroke-linecap="round" stroke-linejoin="round" cx="12.7" cy="40.4" r="12.1"></circle>
                </g>
                <g transform="translate(83.000000, 87.000000)" id="Path">
                    <path d="M47.4,50.6 L47.4,60.7 C47.4,65.8 43.2,69.9 38.2,69.9 L30.9,69.9 C25.8,69.9 21.7,65.7 21.7,60.7 L21.7,48.2 L9.2,48.2 C4.1,48.2 -1.13686838e-13,44 -1.13686838e-13,39 L-1.13686838e-13,31.8 C-1.13686838e-13,26.7 4.2,22.6 9.2,22.6 L21.7,22.6 L21.7,20.5" fill="#B55194"></path>
                    <path d="M47.4,50.6 L47.4,48.2 L59.9,48.2 C65,48.2 69.1,44 69.1,39 L69.1,31.8 C69.1,26.7 64.9,22.6 59.9,22.6 L47.4,22.6 L47.4,10 C47.4,4.9 43.2,0.8 38.2,0.8 L30.9,0.8 C25.8,0.8 21.7,5 21.7,10 L21.7,20.4" fill="#C759A1"></path>
                    <path d="M21.7,20.4 L21.7,10 C21.7,4.9 25.9,0.8 30.9,0.8 L38.2,0.8 C43.3,0.8 47.4,5 47.4,10 L47.4,21.2 C47.4,21.9 48,22.5 48.7,22.5 L59.8,22.5 C64.9,22.5 69,26.7 69,31.7 L69,38.9 C69,44 64.8,48.1 59.8,48.1 L48.7,48.1 C48,48.1 47.4,48.7 47.4,49.4 L47.4,50.5 L47.4,60.6 C47.4,65.7 43.2,69.8 38.2,69.8 L30.9,69.8 C25.8,69.8 21.7,65.6 21.7,60.6 L21.7,49.4 C21.7,48.7 21.1,48.1 20.4,48.1 L9.2,48.1 C4.1,48.1 0,43.9 0,38.9 L0,31.7 C0,26.6 4.2,22.5 9.2,22.5 L20.4,22.5 C21.1,22.5 21.7,21.9 21.7,21.2 L21.7,20.4 Z" stroke="#313869" stroke-width="9"></path>
                </g>
                <path d="M264.1,208.4 C264.8,208.4 265.3,209 265.3,209.6 C264.7,221.8 254.5,231.6 242.1,231.6 C229.7,231.6 219.6,221.9 218.9,209.6 C218.9,208.9 219.4,208.4 220.1,208.4 L264.1,208.4 Z" id="Path" fill="#313869"></path>
                <circle id="Oval" stroke="#313869" stroke-width="9" fill="#FFFFFF" cx="189.1" cy="178.3" r="28"></circle>
                <circle id="Oval" fill="#313869" cx="189.1" cy="173.4" r="21.1"></circle>
                <circle id="Oval" fill="#FFFFFF" cx="189.1" cy="173.4" r="7.6"></circle>
                <circle id="Oval" stroke="#313869" stroke-width="9" fill="#FFFFFF" cx="292.6" cy="178.3" r="28"></circle>
                <circle id="Oval" fill="#313869" cx="292.6" cy="173.4" r="21.1"></circle>
                <circle id="Oval" fill="#FFFFFF" cx="292.6" cy="173.4" r="7.6"></circle>
                <path d="M479.1,325.3 C430.9,377.1 391.5,322.8 352,288.5 C346.9,284.1 340.3,281.6 333.6,281.6 L155.9,281.6 C149.1,281.6 142.6,284 137.5,288.5 C98,322.8 58.7,377.1 10.4,325.3 C0.2,314.3 -1.1,294.3 1.4,273.2 C2.8,281.5 5.6,288.6 10.4,293.7 C58.6,345.5 98,291.2 137.5,256.9 C142.6,252.5 149.2,250 155.9,250 L333.6,250 C340.4,250 346.9,252.4 352,256.9 C391.5,291.2 430.8,345.5 479.1,293.7 C483.9,288.6 486.7,281.5 488.1,273.2 C490.6,294.3 489.3,314.3 479.1,325.3 Z" id="Path" fill="#484099" opacity="0.2"></path>
                <path d="M470.8,203.7 C455.6,159.3 444.9,107.2 414.5,71.8 C411.1,67.9 406.8,65 401.9,63.4 L343.1,44.2 C333.9,41.2 323.7,43.1 316.3,49.4 C311.2,53.7 304.8,56 298.2,56 L191.2,56 C184.6,56 178.2,53.7 173.1,49.4 C165.7,43.2 155.5,41.2 146.3,44.2 L87.5,63.4 C82.6,65 78.2,67.9 74.9,71.8 C44.5,107.2 33.8,159.3 18.6,203.7 C9.6,230 -12.8,300.5 10.3,325.3 C58.5,377.1 97.9,322.8 137.4,288.5 C142.5,284.1 149.1,281.6 155.8,281.6 L333.5,281.6 C340.3,281.6 346.8,284 351.9,288.5 C391.4,322.8 430.7,377.1 479,325.3 C502.2,300.5 479.8,230 470.8,203.7 Z" id="Path" stroke="#313869" stroke-width="11"></path>
                <g transform="translate(191.000000, 80.000000)" id="Path" stroke="#ACB9DE" stroke-linecap="round" stroke-linejoin="round" stroke-width="9">
                    <path d="M76.7,1 L101.6,1"></path>
                    <path d="M0.6,1 L48.3,1"></path>
                </g>
            </g>
            <g id="Group" transform="translate(0.000000, 133.000000)">
                <ellipse id="Oval" fill="#000000" opacity="0.05" cx="258" cy="371.3" rx="160.9" ry="19.4"></ellipse>
                <path d="M281.1,148.3 C272.7,129.8 266.6,109.7 267.1,89.4 C267.7,69 275.6,48.3 291.2,35.3 C306.9,22.3 330.8,18.7 348.1,29.4 C364.1,39.3 363.4,71.4 341.4,72.6 C317.7,73.9 314.2,37.5 322.6,21.9 C330,8.1 345.8,-0.8 361.4,0.1" id="Path" stroke="#313869" stroke-width="11" stroke-linecap="round" stroke-linejoin="round"></path>
                <g transform="translate(194.000000, 131.000000)" fill="#313869" id="Path">
                    <path d="M62.6,1.9 C59.7,0 55.9,0.7 54,3.6 C28.1,42.2 24.6,87.9 26.3,119.5 C28,152.9 29.8,187.3 37.3,221.2 C34,220.3 30.4,219.7 26.6,219.7 C12,219.7 0.2,227.3 0.2,236.7 C0.2,237.9 0.4,239.1 0.8,240.2 L52.4,240.2 C52.8,239.1 53,237.9 53,236.7 C53,230.4 50.7,224.2 49.4,218.1 C47.9,211.3 46.7,204.5 45.6,197.6 C43.5,183.9 42.1,170.2 41,156.4 C40,143.9 39.4,131.3 38.7,118.7 C37.2,89 40.3,46.1 64.3,10.4 C66.2,7.7 65.5,3.9 62.6,1.9 Z"></path>
                    <path d="M75.5,1.9 C78.4,0 82.2,0.7 84.1,3.6 C110,42.2 113.5,87.9 111.8,119.5 C110.1,152.9 108.3,187.3 100.8,221.2 C104.1,220.3 107.7,219.7 111.5,219.7 C126.1,219.7 137.9,227.3 137.9,236.7 C137.9,237.9 137.7,239.1 137.3,240.2 L85.7,240.2 C85.3,239.1 85.1,237.9 85.1,236.7 C85.1,230.4 87.4,224.2 88.7,218.1 C90.2,211.3 91.4,204.5 92.5,197.6 C94.6,183.9 96,170.2 97.1,156.4 C98.1,143.9 98.7,131.3 99.4,118.7 C100.9,89 97.8,46.1 73.8,10.4 C71.9,7.7 72.6,3.9 75.5,1.9 Z"></path>
                </g>
                <path d="M420.1,92.1 L107.2,92.1 C48.7,92.1 0.4,139.1 0.2,197.5 C0,256.1 47.4,303.7 106,303.7 C134,303.7 159.4,292.8 178.3,275.1 C183,270.7 189.1,268.2 195.5,268.2 L330.5,268.2 C336.9,268.2 343,270.7 347.7,275.1 C366.5,292.7 391.7,303.5 419.5,303.7 C477.6,304 525.5,256.8 525.9,198.6 C526.3,139.8 478.8,92.1 420.1,92.1 Z" id="Path" fill="#95A0D1"></path>
                <path d="M420.1,92.1 L107.2,92.1 C48.7,92.1 0.4,139.1 0.2,197.5 C0,256.1 47.4,303.7 106,303.7 C134,303.7 159.4,292.8 178.3,275.1 C183,270.7 189.1,268.2 195.5,268.2 L330.5,268.2 C336.9,268.2 343,270.7 347.7,275.1 C366.5,292.7 391.7,303.5 419.5,303.7 C477.6,304 525.5,256.8 525.9,198.6 C526.3,139.8 478.8,92.1 420.1,92.1 Z" id="Path" stroke="#313869" stroke-width="11"></path>
                <path d="M29.2,191 C29.3,151 62.5,118.4 103.2,118.4" id="Path" stroke="#ACB9DE" stroke-width="9" stroke-linecap="round" stroke-linejoin="round"></path>
                <path d="M300.8,115.8 L391.7,115.8" id="Path" stroke="#ACB9DE" stroke-width="9" stroke-linecap="round" stroke-linejoin="round"></path>
                <path d="M525.9,201.1 C525.5,259.2 477.6,306.5 419.5,306.2 C391.8,306.1 366.5,295.2 347.7,277.6 C343,273.2 336.9,270.7 330.5,270.7 L195.5,270.7 C189.1,270.7 182.9,273.2 178.3,277.6 C159.4,295.3 133.9,306.2 106,306.2 C47.4,306.2 0,258.6 0.2,200 C0.2,195 0.6,190.1 1.3,185.2 C8.7,236.4 52.8,275.7 106,275.7 C134,275.7 159.4,264.8 178.3,247.1 C183,242.7 189.1,240.2 195.5,240.2 L330.5,240.2 C336.9,240.2 343.1,242.7 347.7,247.1 C366.5,264.7 391.7,275.5 419.5,275.7 C472.7,276 517.4,236.4 524.8,185.1 C525.6,190.3 526,195.7 525.9,201.1 Z" id="Path" fill="#484099" opacity="0.2"></path>
                <g transform="translate(370.000000, 123.000000)">
                    <circle id="Oval" stroke="#313869" stroke-width="9" fill="#F9DC61" stroke-linecap="round" stroke-linejoin="round" cx="62.7" cy="31.2" r="12.1"></circle>
                    <g transform="translate(55.000000, 52.000000)" id="Oval" stroke="#313869" stroke-width="9">
                        <circle fill="#8DC640" stroke-linecap="round" stroke-linejoin="round" cx="13" cy="41.1" r="12.1"></circle>
                        <circle fill="#C759A1" cx="47" cy="12.8" r="12.1"></circle>
                    </g>
                    <circle id="Oval" stroke="#313869" stroke-width="9" fill="#29AAE2" stroke-linecap="round" stroke-linejoin="round" cx="28.7" cy="59.5" r="12.1"></circle>
                    <path d="M38.5,82.6 L86,39.9 C95.4,31.4 96.2,17 87.7,7.6 C79.2,-1.8 64.8,-2.6 55.4,5.9 L7.9,48.6 C-1.5,57.1 -2.3,71.5 6.2,80.9 C14.6,90.3 29.1,91.1 38.5,82.6 Z" id="Path" fill="#484099" opacity="0.2"></path>
                    <path d="M74.9,119 L122.4,76.3 C131.8,67.8 132.6,53.4 124.1,44 C115.6,34.6 101.2,33.8 91.8,42.3 L44.3,85 C34.9,93.5 34.1,107.9 42.6,117.3 C51,126.7 65.5,127.5 74.9,119 Z" id="Path" fill="#484099" opacity="0.2"></path>
                </g>
                <g transform="translate(57.000000, 150.000000)" id="Path">
                    <path d="M47.5,50.6 L47.5,60.7 C47.5,65.8 43.3,69.9 38.3,69.9 L31,69.9 C25.9,69.9 21.8,65.7 21.8,60.7 L21.8,48.2 L9.3,48.2 C4.2,48.2 0.1,44 0.1,39 L0.1,31.8 C0.1,26.7 4.3,22.6 9.3,22.6 L21.8,22.6 L21.8,20.5" fill="#B55194"></path>
                    <path d="M47.5,50.6 L47.5,48.2 L60,48.2 C65.1,48.2 69.2,44 69.2,39 L69.2,31.8 C69.2,26.7 65,22.6 60,22.6 L47.5,22.6 L47.5,10.1 C47.5,5 43.3,0.9 38.3,0.9 L31,0.9 C25.9,0.9 21.8,5.1 21.8,10.1 L21.8,20.5" fill="#C759A1"></path>
                    <path d="M21.8,20.5 L21.8,10.1 C21.8,5 26,0.9 31,0.9 L38.3,0.9 C43.4,0.9 47.5,5.1 47.5,10.1 L47.5,21.3 C47.5,22 48.1,22.6 48.8,22.6 L60,22.6 C65.1,22.6 69.2,26.8 69.2,31.8 L69.2,39 C69.2,44.1 65,48.2 60,48.2 L48.9,48.2 C48.2,48.2 47.6,48.8 47.6,49.5 L47.6,50.6 L47.6,60.7 C47.6,65.8 43.4,69.9 38.4,69.9 L31,69.9 C25.9,69.9 21.8,65.7 21.8,60.7 L21.8,49.5 C21.8,48.8 21.2,48.2 20.5,48.2 L9.3,48.2 C4.2,48.2 0.1,44 0.1,39 L0.1,31.8 C0.1,26.7 4.3,22.6 9.3,22.6 L20.5,22.6 C21.2,22.6 21.8,22 21.8,21.3 L21.8,20.5 Z" stroke="#313869" stroke-width="9"></path>
                </g>
                <path d="M282.7,204.1 C283.4,204.1 283.9,204.7 283.9,205.3 C283.3,217.5 273.1,227.3 260.7,227.3 C248.3,227.3 238.2,217.6 237.5,205.3 C237.5,204.6 238,204.1 238.7,204.1 L282.7,204.1 Z" id="Path" fill="#313869"></path>
                <path d="M194.9,180.1 C194.9,167.7 204.9,157.7 217.3,157.7 C229.7,157.7 239.7,167.7 239.7,180.1" id="Path" stroke="#313869" stroke-width="9" stroke-linecap="round" stroke-linejoin="round"></path>
                <path d="M281.8,180.1 C281.8,167.7 291.8,157.7 304.2,157.7 C316.6,157.7 326.6,167.7 326.6,180.1" id="Path" stroke="#313869" stroke-width="9" stroke-linecap="round" stroke-linejoin="round"></path>
            </g>
            <ellipse id="Oval" fill="#000000" opacity="0.05" cx="1370.9" cy="517.5" rx="160.9" ry="19.4"></ellipse>
            <path d="M1349.4,514.7 C1349.4,509.3 1348.1,503.8 1347.5,498.5 C1346.7,491.6 1346.1,484.7 1345.6,477.8 C1344.8,464 1344.7,450.2 1344.9,436.3 C1345.1,423.7 1345.7,411.2 1346.2,398.6 C1347.5,368.9 1354.7,326.5 1382,293.2 C1384.2,290.5 1383.8,286.6 1381.1,284.4 C1378.4,282.2 1374.5,282.6 1372.3,285.3 C1342.9,321.2 1335.1,366.4 1333.7,398 C1332.3,431.4 1330.8,465.8 1335,500.3 C1331.8,499.1 1328.3,498.2 1324.5,497.8 C1310,496.4 1297.5,502.9 1296.7,512.2 C1296.6,513 1296.6,513.8 1296.7,514.6 L1349.4,514.6 L1349.4,514.7 Z" id="Path" fill="#313869"></path>
            <path d="M1394.8,398.6 C1395.4,411.2 1395.9,423.7 1396.2,436.3 C1396.5,450.1 1396.4,464 1395.7,477.8 C1395.3,484.7 1394.7,491.7 1393.9,498.5 C1393.3,503.8 1392,509.3 1392,514.7 L1444.5,514.7 C1444.6,513.9 1444.6,513 1444.6,512.2 C1443.7,502.9 1431.2,496.5 1416.7,497.9 C1412.9,498.3 1409.4,499.1 1406.2,500.4 C1410.3,465.9 1408.8,431.5 1407.2,398.1 C1405.8,366.5 1397.8,321.3 1368.3,285.5 C1366.1,282.8 1362.2,282.5 1359.5,284.6 C1356.8,286.8 1356.5,290.7 1358.6,293.4 C1386,326.5 1393.4,368.9 1394.8,398.6 Z" id="Path" fill="#313869"></path>
            <path d="M1477.8,164.2 C1481.8,164.2 1485.7,162.9 1487,157.6 C1487,145.7 1488.3,131.2 1500.2,125.9 C1517.4,120.6 1537.2,119.3 1553,127.2 C1564.9,133.8 1562.2,148.3 1564.9,160.2 C1583.4,169.4 1597.9,184 1605.8,202.4 C1611.1,216.9 1615,232.8 1617.7,248.6 C1623,280.4 1647.2,404.4 1637.5,433.4 C1621.6,481.2 1571.6,475.9 1540.1,445.8 C1518.2,424.8 1505,396.7 1487,372.7 C1451.4,372.7 1301.4,372.7 1265.7,372.7 C1247.7,396.8 1234.5,424.8 1212.6,445.8 C1181.1,475.9 1131.1,481.2 1115.2,433.4 C1105.5,404.4 1129.7,280.4 1135,248.6 C1137.6,232.8 1141.6,216.9 1146.9,202.4 C1154.8,183.9 1169.3,169.4 1187.8,160.2 C1190.4,148.3 1187.8,133.8 1199.7,127.2 C1215.5,119.3 1235.3,120.6 1252.5,125.9 C1264.4,131.2 1265.7,145.7 1265.7,157.6 C1267,162.9 1271,164.2 1274.9,164.2 C1308,165.6 1444.8,165.6 1477.8,164.2 Z" id="Path" fill="#95A0D1"></path>
            <path d="M1477.8,164.2 C1481.8,164.2 1485.7,162.9 1487,157.6 C1487,145.7 1488.3,131.2 1500.2,125.9 C1517.4,120.6 1537.2,119.3 1553,127.2 C1564.9,133.8 1562.2,148.3 1564.9,160.2 C1583.4,169.4 1597.9,184 1605.8,202.4 C1611.1,216.9 1615,232.8 1617.7,248.6 C1623,280.4 1647.2,404.4 1637.5,433.4 C1621.6,481.2 1571.6,475.9 1540.1,445.8 C1518.2,424.8 1505,396.7 1487,372.7 C1451.4,372.7 1301.4,372.7 1265.7,372.7 C1247.7,396.8 1234.5,424.8 1212.6,445.8 C1181.1,475.9 1131.1,481.2 1115.2,433.4 C1105.5,404.4 1129.7,280.4 1135,248.6 C1137.6,232.8 1141.6,216.9 1146.9,202.4 C1154.8,183.9 1169.3,169.4 1187.8,160.2 C1190.4,148.3 1187.8,133.8 1199.7,127.2 C1215.5,119.3 1235.3,120.6 1252.5,125.9 C1264.4,131.2 1265.7,145.7 1265.7,157.6 C1267,162.9 1271,164.2 1274.9,164.2 C1308,165.6 1444.8,165.6 1477.8,164.2 Z" id="Path" stroke="#313869" stroke-width="11"></path>
            <path d="M1610.8,343.3 C1612.5,354.8 1614,366.4 1615.2,378" id="Path" stroke="#ACB9DE" stroke-width="9" stroke-linecap="round" stroke-linejoin="round"></path>
            <path d="M1601.6,284 C1604,297.7 1606.3,311.4 1608.4,325.1" id="Path" stroke="#ACB9DE" stroke-width="9" stroke-linecap="round" stroke-linejoin="round"></path>
            <g id="Group" transform="translate(1469.000000, 178.000000)">
                <circle id="Oval" fill="#484099" opacity="0.2" cx="61.1" cy="60.5" r="60.5"></circle>
                <g transform="translate(15.000000, 20.000000)" id="Oval" stroke="#313869" stroke-width="9">
                    <circle fill="#8DC640" stroke-linecap="round" stroke-linejoin="round" cx="46.1" cy="12.2" r="12.1"></circle>
                    <circle fill="#29AAE2" stroke-linecap="round" stroke-linejoin="round" cx="46.1" cy="68.8" r="12.1"></circle>
                    <circle fill="#C759A1" cx="80.1" cy="40.5" r="12.1"></circle>
                    <circle fill="#DDA6CC" stroke-linecap="round" stroke-linejoin="round" cx="12.1" cy="40.5" r="12.1"></circle>
                </g>
            </g>
            <g id="Group" transform="translate(1164.000000, 178.000000)">
                <circle id="Oval" fill="#484099" opacity="0.2" cx="60.9" cy="60.5" r="60.5"></circle>
                <g transform="translate(21.000000, 21.000000)" fill="#313869" id="Path">
                    <path d="M72.6,54 C76.1,54 79,51.1 79,47.6 L79,31.3 C79,27.8 76.1,24.9 72.6,24.9 L61.6,24.9 C59.7,24.9 58,25.7 56.7,27.1 L49.6,35.2 C47.5,37.6 47.5,41.2 49.6,43.6 L56.7,51.7 C57.9,53.1 59.7,53.9 61.6,53.9 L72.6,54 Z"></path>
                    <path d="M7.2,24.9 C3.7,24.9 0.8,27.8 0.8,31.3 L0.8,47.6 C0.8,51.1 3.7,54 7.2,54 L18.2,54 C20.1,54 21.8,53.2 23.1,51.8 L30.2,43.7 C32.3,41.3 32.3,37.7 30.2,35.3 L23.1,27.2 C21.9,25.8 20.1,25 18.2,25 L7.2,24.9 Z"></path>
                    <path d="M54.5,6.8 C54.5,3.3 51.6,0.4 48.1,0.4 L31.8,0.4 C28.3,0.4 25.4,3.3 25.4,6.8 L25.4,17.8 C25.4,19.7 26.2,21.4 27.6,22.7 L35.7,29.8 C38.1,31.9 41.7,31.9 44.1,29.8 L52.2,22.7 C53.6,21.5 54.4,19.7 54.4,17.8 L54.5,6.8 Z"></path>
                    <path d="M25.4,72.2 C25.4,75.7 28.3,78.6 31.8,78.6 L48.1,78.6 C51.6,78.6 54.5,75.7 54.5,72.2 L54.5,61.2 C54.5,59.3 53.7,57.6 52.3,56.3 L44.2,49.2 C41.8,47.1 38.2,47.1 35.8,49.2 L27.7,56.3 C26.3,57.5 25.5,59.3 25.5,61.2 L25.4,72.2 Z"></path>
                </g>
            </g>
            <path d="M1635.9,433.5 C1620,481.3 1570,476 1538.5,445.9 C1517.7,426 1504.9,399.8 1488.2,376.7 C1486.5,374.3 1483.7,372.8 1480.7,372.8 L1268.7,372.8 C1265.7,372.8 1263,374.3 1261.2,376.7 C1244.6,399.9 1231.7,426.1 1210.9,445.9 C1179.4,476 1129.5,481.3 1113.5,433.5 C1111.1,426.2 1110.8,413.1 1111.8,396.8 C1112.2,400.4 1112.7,403.5 1113.5,405.9 C1129.4,453.7 1177.4,448.4 1208.9,418.3 C1229.5,398.6 1241.3,372.7 1257.7,349.7 C1259.7,346.9 1262.9,345.2 1266.3,345.2 L1483,345.2 C1486.4,345.2 1492.6,346.9 1494.6,349.7 C1511,372.7 1522.8,398.6 1543.4,418.3 C1574.9,448.4 1619.9,453.7 1635.8,405.9 C1636.6,403.5 1637.2,400.4 1637.5,396.8 C1638.6,413.1 1638.3,426.3 1635.9,433.5 Z" id="Path" fill="#484099" opacity="0.2"></path>
            <path d="M1399.5,301.5 C1398.9,313.1 1389.3,322.4 1377.5,322.4 C1365.7,322.4 1356.1,313.2 1355.5,301.5" id="Path" stroke="#313869" stroke-width="9" stroke-linecap="round" stroke-linejoin="round"></path>
            <circle id="Oval" stroke="#313869" stroke-width="9" fill="#FFFFFF" cx="1323.2" cy="266.6" r="28"></circle>
            <circle id="Oval" fill="#313869" cx="1313.4" cy="261.1" r="21.1"></circle>
            <circle id="Oval" fill="#FFFFFF" cx="1314" cy="264.4" r="7.6"></circle>
            <path d="M1305.6,221.4 C1318.6,220.2 1325.2,220.2 1338.2,221.4 C1341.8,221.7 1345,219.2 1345.5,215.7 C1345.9,212.2 1343.2,208.9 1339.4,208.5 C1325.5,207.2 1318.4,207.2 1304.5,208.5 C1300.7,208.8 1297.9,212.1 1298.4,215.7 C1298.8,219.2 1302,221.7 1305.6,221.4 Z" id="Path" fill="#313869"></path>
            <g id="Group" transform="translate(1401.000000, 207.000000)">
                <circle id="Oval" stroke="#313869" stroke-width="9" fill="#FFFFFF" cx="30.8" cy="59.6" r="28"></circle>
                <circle id="Oval" fill="#313869" cx="21.8" cy="54.1" r="21.1"></circle>
                <circle id="Oval" fill="#FFFFFF" cx="22.9" cy="57.4" r="7.6"></circle>
                <path d="M15.5,14.4 C28.5,13.2 35.1,13.2 48.1,14.4 C51.7,14.7 54.9,12.2 55.4,8.7 C55.8,5.2 53.1,1.9 49.3,1.5 C35.4,0.2 28.3,0.2 14.4,1.5 C10.6,1.8 7.8,5.1 8.3,8.7 C8.6,12.2 11.9,14.7 15.5,14.4 Z" id="Path" fill="#313869"></path>
            </g>
        </g>
    </g>
</svg>